<?xml version="1.0" standalone="no"?>
<!DOCTYPE svg PUBLIC "-//W3C//DTD SVG 20010904//EN"
 "http://www.w3.org/TR/2001/REC-SVG-20010904/DTD/svg10.dtd">
<svg version="1.0" xmlns="http://www.w3.org/2000/svg"
 width="637.000000pt" height="505.000000pt" viewBox="0 0 637.000000 505.000000"
 preserveAspectRatio="xMidYMid meet">

<g transform="translate(0.000000,505.000000) scale(0.100000,-0.100000)"
fill="#000000" stroke="none">
<path d="M1060 3608 c0 -9 10 -19 23 -23 22 -7 22 -8 1 -12 -27 -5 -31 -28
-44 -243 -6 -91 -15 -226 -20 -300 -29 -379 -60 -829 -60 -861 l0 -29 114 0
c148 0 154 2 120 47 -26 34 -26 34 -5 40 12 3 21 13 21 24 0 30 16 30 56 -2
29 -22 44 -28 65 -24 30 7 79 -3 79 -16 0 -4 -19 -14 -42 -20 -24 -7 -50 -18
-58 -26 -12 -11 -4 -13 52 -13 58 0 67 3 73 20 3 11 15 20 26 20 17 0 20 -4
19 -27 -1 -17 237 -31 275 -16 15 5 15 8 -6 24 -15 12 -19 19 -10 19 8 0 22
-7 32 -16 9 -8 28 -14 41 -12 l23 3 -23 23 c-25 25 -23 52 3 52 25 0 65 -30
81 -62 20 -38 65 -37 74 2 l6 25 17 -32 c17 -32 19 -33 85 -33 80 0 112 8 106
24 -3 9 5 12 28 9 l33 -3 -32 15 c-33 15 -37 25 -25 58 7 17 9 16 30 -3 12
-11 22 -25 22 -30 0 -4 12 -22 26 -39 22 -26 33 -31 70 -31 l44 0 -5 73 c-11
143 -15 157 -40 169 -13 6 -29 23 -35 39 -8 18 -22 30 -40 34 -38 8 -58 31
-41 48 9 9 16 9 32 -1 24 -15 39 -8 39 19 0 10 4 19 9 19 12 0 21 -39 10 -46
-14 -8 -11 -44 4 -44 37 1 40 14 33 146 -9 153 -13 175 -32 167 -8 -3 -14 -1
-14 3 0 5 -13 15 -30 22 -36 16 -39 32 -7 32 50 0 61 21 58 106 -1 43 -6 109
-11 148 -5 39 -10 77 -10 83 0 10 -6 10 -25 1 -33 -15 -43 -3 -20 22 19 20 19
22 0 56 -24 45 -10 58 21 19 l24 -30 -1 30 c0 17 -6 104 -12 195 l-12 165 -85
-1 c-100 -1 -108 -1 -400 0 -124 1 -263 0 -310 -2 -47 -1 -160 1 -252 4 -147
6 -168 5 -168 -8z m417 -55 c7 -17 -29 -53 -53 -53 -17 0 -19 41 -2 58 17 17
48 15 55 -5z m731 -41 c4 -35 -12 -43 -28 -13 -16 30 -12 53 8 49 11 -2 18
-14 20 -36z m-810 -39 c-2 -10 -10 -18 -18 -18 -8 0 -16 8 -18 18 -2 12 3 17
18 17 15 0 20 -5 18 -17z m846 -116 c-4 -26 -11 -44 -15 -41 -11 6 -12 88 -2
98 15 14 23 -13 17 -57z m-124 32 c0 -6 -4 -7 -10 -4 -5 3 -10 11 -10 16 0 6
5 7 10 4 6 -3 10 -11 10 -16z m-68 -94 c13 -19 31 -35 41 -35 21 0 22 -23 2
-44 -14 -13 -15 -40 -7 -213 5 -118 5 -211 0 -231 -12 -43 -41 -72 -73 -72
-25 0 -25 0 25 -94 27 -52 50 -97 50 -100 0 -3 -44 -6 -97 -6 l-98 0 -23 41
c-23 40 -24 41 -38 20 -9 -12 -22 -21 -30 -21 -8 0 -22 -9 -31 -19 -13 -16
-19 -17 -35 -8 -18 11 -17 12 4 17 16 4 24 14 26 33 3 20 9 27 26 27 35 0 37
9 10 61 l-24 49 -79 0 c-43 0 -112 3 -154 6 l-77 7 0 73 c0 43 -4 74 -10 74
-5 0 -10 5 -10 11 0 5 5 7 10 4 6 -3 10 -1 10 4 0 7 62 11 188 11 l187 0 28
35 c23 29 27 41 22 69 -4 20 -2 36 4 40 6 4 11 29 11 55 l0 49 -47 -17 c-27
-9 -49 -19 -51 -23 -5 -11 -30 -10 -36 0 -9 15 6 51 23 55 9 3 -1 5 -22 6 -22
1 -45 -5 -53 -14 -19 -19 -48 -20 -41 -1 7 18 -41 26 -165 26 l-98 0 0 -95 c0
-60 4 -95 11 -95 5 0 7 5 4 10 -3 6 -1 10 4 10 15 0 14 -12 -5 -39 -14 -19
-18 -63 -23 -240 l-6 -216 -91 -3 -91 -3 4 98 c2 54 8 164 13 246 6 81 10 200
10 265 0 64 3 141 6 170 l7 52 383 0 384 0 22 -35z m-894 -47 c-3 -7 -11 -13
-18 -13 -7 0 -15 6 -17 13 -3 7 4 12 17 12 13 0 20 -5 18 -12z m1049 -14 c4
-10 -2 -23 -15 -33 -11 -9 -22 -25 -24 -36 -4 -25 -27 -30 -53 -11 -16 12 -17
16 -6 30 7 9 22 16 32 16 12 0 21 10 25 25 7 28 31 33 41 9z m-1113 -49 c-4
-8 -11 -15 -16 -15 -6 0 -5 6 2 15 7 8 14 15 16 15 2 0 1 -7 -2 -15z m1104
-87 c42 -20 44 -22 23 -30 -21 -7 -42 -5 -93 9 -10 2 -18 10 -18 18 0 7 8 16
18 18 9 3 19 5 21 6 3 0 25 -9 49 -21z m-348 -43 c0 -8 -4 -15 -10 -15 -5 0
-10 7 -10 15 0 8 5 15 10 15 6 0 10 -7 10 -15z m-29 -108 c-16 -16 -26 0 -10
19 9 11 15 12 17 4 2 -6 -1 -17 -7 -23z m338 -253 c11 -9 -15 -24 -44 -24 -35
0 -51 12 -40 30 6 9 72 4 84 -6z m-971 -52 c3 -9 -2 -13 -14 -10 -9 1 -19 9
-22 16 -3 9 2 13 14 10 9 -1 19 -9 22 -16z m467 -21 c17 -10 31 -25 33 -34 3
-13 -3 -15 -30 -11 -29 4 -104 -11 -149 -30 -10 -4 -23 0 -33 9 -28 28 -2 48
51 40 37 -5 45 -3 64 19 26 30 25 30 64 7z m499 10 c3 -4 3 -11 0 -14 -8 -8
-34 3 -34 14 0 11 27 12 34 0z m130 -67 c4 -10 1 -14 -6 -12 -15 5 -23 28 -10
28 5 0 13 -7 16 -16z m-130 -15 c31 -25 33 -45 5 -54 -27 -9 -75 35 -66 59 9
22 29 20 61 -5z m-455 -82 c18 -34 30 -47 50 -49 22 -3 28 -10 38 -52 7 -28
10 -52 8 -55 -3 -2 -15 5 -28 17 -30 29 -34 28 -42 -8 -5 -21 -13 -30 -26 -30
-29 0 -25 46 6 66 24 16 25 17 7 46 -9 16 -27 39 -39 50 -19 18 -25 19 -38 8
-19 -16 -39 -1 -33 26 3 17 40 35 63 30 6 -1 21 -23 34 -49z m-429 14 c0 -6
-4 -13 -10 -16 -5 -3 -10 1 -10 9 0 9 5 16 10 16 6 0 10 -4 10 -9z m380 -126
c0 -8 -7 -15 -15 -15 -16 0 -20 12 -8 23 11 12 23 8 23 -8z m380 -5 c0 -5 13
-10 29 -10 31 0 47 -14 53 -45 2 -17 -2 -20 -29 -17 -23 1 -33 -2 -33 -12 0
-8 -16 -24 -36 -35 l-36 -22 6 28 c3 15 9 44 12 63 3 19 7 41 10 48 4 14 24
16 24 2z m-999 -37 c16 -10 29 -20 29 -24 0 -4 14 -10 31 -14 28 -6 48 -29 37
-41 -11 -10 -104 22 -120 41 -17 19 -24 55 -12 55 3 0 19 -8 35 -17z m584 -4
c0 -8 -15 -16 -38 -20 -52 -8 -54 -14 -17 -47 22 -20 28 -32 20 -37 -6 -4 -17
-2 -23 4 -6 6 -23 11 -37 11 -15 0 -35 9 -45 20 -10 11 -29 20 -42 20 -18 0
-24 5 -21 18 3 13 14 17 53 18 28 1 68 8 90 17 45 18 60 17 60 -4z m55 -33 c0
-8 12 -23 27 -34 28 -20 25 -43 -5 -37 -68 14 -67 13 -69 50 -1 31 1 35 23 35
14 0 24 -6 24 -14z m474 -32 c25 -10 19 -34 -8 -34 -29 0 -44 19 -25 31 17 11
14 10 33 3z"/>
<path d="M5305 3347 l-40 -22 -16 -105 c-20 -130 -49 -232 -100 -361 l-40 -99
22 -45 c12 -25 26 -45 29 -45 4 0 25 39 47 88 30 63 42 105 46 152 6 87 42
202 73 239 22 27 26 43 31 126 3 54 2 95 -3 95 -5 0 -27 -10 -49 -23z"/>
<path d="M5767 3273 c-3 -54 -15 -145 -26 -203 -17 -89 -38 -420 -26 -420 6 0
65 171 89 258 45 163 59 253 49 323 l-9 64 -10 -45 c-6 -29 -15 -46 -27 -48
-15 -3 -17 6 -17 70 0 113 -16 113 -23 1z"/>
<path d="M5525 3300 c3 -5 8 -10 11 -10 2 0 4 5 4 10 0 6 -5 10 -11 10 -5 0
-7 -4 -4 -10z"/>
<path d="M5497 3103 c-12 -11 -8 -23 8 -23 8 0 15 7 15 15 0 16 -12 20 -23 8z"/>
<path d="M5595 3100 c3 -5 8 -10 11 -10 2 0 4 5 4 10 0 6 -5 10 -11 10 -5 0
-7 -4 -4 -10z"/>
<path d="M5276 2543 c-20 -37 -37 -71 -38 -75 -4 -9 54 -86 68 -92 6 -2 3 12
-7 32 -23 43 -19 49 16 26 26 -17 28 -17 41 1 19 26 18 34 -11 57 -14 11 -30
28 -35 39 -16 29 15 25 45 -6 14 -13 25 -19 25 -12 0 18 -43 90 -57 94 -6 2
-27 -27 -47 -64z"/>
<path d="M2337 2434 c-7 -8 4 -44 14 -44 12 0 12 37 0 44 -4 3 -11 3 -14 0z"/>
<path d="M4902 2403 l-30 -38 54 1 c51 2 84 15 84 36 0 7 -59 38 -74 38 -2 0
-18 -17 -34 -37z"/>
<path d="M5470 2366 c0 -2 7 -9 15 -16 13 -11 14 -10 9 4 -5 14 -24 23 -24 12z"/>
<path d="M1246 2193 c-3 -8 -4 -19 -1 -23 8 -13 35 -1 35 15 0 19 -27 26 -34
8z"/>
<path d="M921 1992 c-13 -26 -17 -42 -10 -49 6 -6 18 -25 27 -44 18 -36 115
-99 152 -99 5 0 12 -9 15 -20 3 -11 15 -25 26 -30 10 -6 19 -15 19 -20 0 -16
-26 -11 -50 10 -28 24 -29 24 -52 3 -17 -15 -18 -15 -18 6 0 15 -7 25 -20 28
-11 3 -23 16 -26 28 -3 12 -19 32 -35 44 -17 13 -38 35 -48 51 l-17 29 -96
-152 c-211 -336 -256 -412 -244 -419 7 -5 5 -8 -6 -8 -13 0 -18 -13 -23 -57
-4 -32 -9 -65 -11 -75 -3 -9 4 -23 17 -32 24 -17 19 -52 -6 -42 -10 3 -15 -1
-15 -13 0 -37 11 -51 35 -45 17 4 33 -5 70 -40 l47 -46 351 -1 c444 -1 521 0
525 12 5 12 69 12 77 -1 4 -6 76 -10 183 -10 l177 0 -28 25 c-15 14 -38 48
-52 75 -22 44 -23 49 -7 55 11 4 23 -1 34 -17 9 -13 26 -35 38 -50 11 -14 20
-34 20 -45 0 -10 5 -25 10 -33 8 -12 13 -13 29 -3 11 7 34 10 55 6 34 -5 36
-4 36 21 0 28 18 34 38 14 17 -17 15 -36 -5 -41 -17 -4 407 -10 521 -7 57 1
84 16 88 47 5 36 23 27 23 -11 0 -29 2 -33 18 -25 47 26 58 91 43 244 -9 88 8
56 -221 427 -99 160 -101 163 -138 166 -40 3 -46 12 -22 32 22 18 19 29 -21
93 l-36 57 -164 0 -164 0 0 -26 c0 -37 16 -61 44 -68 23 -6 24 -9 15 -30 -9
-19 -7 -29 6 -50 12 -19 15 -30 8 -37 -10 -10 -36 0 -133 50 -8 5 -16 18 -18
30 -3 20 -1 22 33 15 l36 -6 -20 38 c-12 21 -21 49 -21 61 l0 23 -196 0 c-132
0 -193 -3 -189 -10 4 -7 -2 -9 -18 -5 -29 8 -67 -9 -67 -30 0 -7 -5 -26 -10
-41 -15 -38 -35 -16 -35 39 l0 42 -277 3 -277 2 -20 -38z m1044 18 c7 -11 -16
-70 -27 -70 -9 0 -58 60 -58 71 0 12 77 12 85 -1z m-176 -95 c32 -30 57 -45
75 -45 16 0 26 -5 26 -15 0 -17 -40 -21 -57 -4 -7 7 -15 6 -26 -6 -15 -14 -18
-14 -37 5 -11 11 -20 31 -20 45 0 14 -8 29 -20 35 -11 6 -20 15 -20 20 0 22
34 7 79 -35z m389 27 c2 -7 -6 -12 -17 -12 -21 0 -27 11 -14 24 9 9 26 2 31
-12z m67 -46 c11 -7 35 -17 53 -21 29 -6 46 -25 22 -25 -7 0 -7 -6 0 -19 13
-26 13 -77 -2 -117 -10 -27 -9 -37 6 -59 14 -21 20 -24 31 -15 8 6 15 21 17
33 5 33 31 26 41 -10 12 -41 3 -66 -22 -58 -13 4 -27 -5 -50 -30 -17 -20 -31
-40 -31 -45 0 -19 -21 -10 -32 14 -8 20 -7 34 6 66 18 46 15 60 -16 60 -18 0
-20 4 -15 35 8 50 -3 105 -20 105 -8 0 -13 6 -10 13 2 6 9 11 15 10 6 -2 16 6
22 17 8 15 8 20 -3 20 -7 0 -18 -5 -24 -11 -18 -18 -43 -2 -43 26 0 29 23 34
55 11z m-855 -41 c25 -40 18 -59 -17 -52 -21 4 -24 2 -18 -17 18 -60 17 -94
-1 -104 -21 -11 -64 1 -64 17 0 6 9 15 20 21 25 13 25 28 3 53 -17 18 -17 19
0 28 9 6 17 18 17 27 0 16 26 62 35 62 2 0 13 -16 25 -35z m234 -10 c16 -25
22 -65 9 -65 -5 0 -21 10 -37 23 -22 18 -27 28 -22 45 10 29 30 28 50 -3z
m-734 -34 c13 -25 -2 -36 -30 -21 -17 9 -19 14 -9 26 16 19 26 18 39 -5z m630
9 c0 -5 -7 -10 -15 -10 -8 0 -15 5 -15 10 0 6 7 10 15 10 8 0 15 -4 15 -10z
m-280 -10 c20 -13 9 -21 -39 -27 -33 -5 -41 -3 -41 10 0 23 53 34 80 17z m658
-23 c3 -16 0 -18 -20 -12 -12 4 -30 14 -38 22 -13 13 -11 14 20 11 24 -2 36
-9 38 -21z m517 -17 c-6 -9 -9 -9 -16 1 -10 17 0 34 13 21 6 -6 7 -16 3 -22z
m-829 -4 c7 -29 -1 -46 -22 -46 -9 0 -14 11 -14 35 0 41 26 49 36 11z m-136
-16 c0 -11 -2 -20 -4 -20 -2 0 -11 -3 -20 -6 -11 -4 -16 0 -16 13 0 23 8 33
27 33 7 0 13 -9 13 -20z m239 -42 c-12 -22 2 -53 31 -68 24 -13 26 -38 5 -46
-9 -4 -26 6 -42 23 -16 16 -43 35 -60 42 -36 15 -44 31 -15 31 10 0 27 7 38
15 18 15 18 15 0 29 -31 25 -8 38 24 14 23 -17 27 -25 19 -40z m-719 12 c9
-16 8 -22 -5 -27 -20 -7 -50 20 -41 36 11 17 34 13 46 -9z m254 -16 c9 -3 16
-10 16 -14 0 -15 -41 -22 -55 -10 -26 22 1 39 39 24z m556 -45 c0 -5 -4 -9
-10 -9 -5 0 -10 7 -10 16 0 8 5 12 10 9 6 -3 10 -10 10 -16z m-640 -28 c0 -9
-7 -26 -15 -37 -13 -16 -16 -17 -25 -4 -14 21 -12 36 6 54 18 19 34 13 34 -13z
m-90 -20 c0 -11 9 -23 20 -26 24 -8 26 -23 4 -32 -10 -4 -20 0 -26 10 -5 10
-15 17 -22 17 -9 0 -12 9 -8 25 5 29 32 34 32 6z m1148 -43 c-2 -13 -7 -23
-13 -23 -5 0 -11 10 -13 23 -2 15 2 22 13 22 11 0 15 -7 13 -22z m-1174 -10
c26 -37 21 -48 -16 -35 -18 6 -35 12 -36 14 -2 1 -1 11 3 22 8 27 30 27 49 -1z
m796 -8 c0 -24 -6 -33 -26 -40 -38 -15 -44 -13 -44 14 0 42 11 56 41 56 26 0
29 -4 29 -30z m-690 -15 c0 -8 -4 -15 -10 -15 -5 0 -10 7 -10 15 0 8 5 15 10
15 6 0 10 -7 10 -15z m840 -5 c0 -16 -7 -20 -35 -20 -40 0 -46 16 -12 30 35
14 47 12 47 -10z m588 -11 c20 -8 45 -48 36 -58 -2 -2 -24 6 -50 18 -25 12
-53 21 -63 19 -25 -5 -26 -46 0 -67 20 -16 21 -21 11 -49 l-11 -32 92 0 92 0
-30 25 c-20 16 -43 24 -67 25 -21 0 -38 5 -38 10 0 6 24 10 53 10 47 0 56 -4
81 -32 24 -28 29 -43 31 -95 l2 -63 -233 0 c-227 0 -234 -1 -234 -20 0 -11 -4
-20 -9 -20 -5 0 -13 9 -16 20 -6 19 -15 20 -195 20 l-189 0 10 -32 c5 -18 9
-34 9 -36 0 -2 -13 -8 -29 -13 -22 -8 -31 -18 -33 -37 -2 -16 -9 -27 -18 -27
-18 0 -26 41 -11 59 8 10 7 17 -4 26 -19 16 -19 25 1 44 14 15 3 16 -125 16
l-141 0 0 -25 c0 -16 -6 -25 -15 -25 -9 0 -21 11 -27 25 l-11 25 -256 2 c-141
0 -280 0 -310 -1 -29 -2 -91 0 -137 4 l-84 7 0 31 c0 69 7 77 66 77 45 0 54 3
54 18 1 16 1 16 11 0 9 -16 27 -18 149 -18 l138 0 -26 30 -26 30 -22 -21 -22
-21 -15 24 c-24 37 -29 66 -17 89 13 23 24 17 44 -23 6 -12 29 -31 50 -41 35
-16 40 -17 55 -3 24 22 31 20 31 -6 1 -49 20 -58 118 -58 l91 0 7 50 c6 47 27
62 23 17 -6 -64 -3 -67 55 -67 35 0 56 5 59 13 3 10 11 10 39 0 21 -8 88 -13
176 -13 131 0 142 1 155 21 15 21 91 49 134 49 33 0 29 -27 -6 -35 -16 -3 -35
-13 -42 -21 -10 -12 -2 -14 49 -14 52 0 60 2 55 16 -4 12 -1 15 13 12 10 -2
18 -10 16 -16 -3 -17 189 -17 207 1 11 10 14 10 18 0 3 -9 32 -13 96 -13 l92
0 -3 45 c-3 31 -9 45 -18 45 -8 0 -18 10 -23 22 -6 18 -3 29 18 49 27 27 61
29 119 8z m-481 -9 c3 -16 -44 -56 -54 -47 -3 3 1 20 8 37 14 31 42 37 46 10z
m181 -19 c2 -13 12 -26 23 -28 19 -5 25 -23 13 -36 -4 -4 -19 0 -33 7 -14 8
-34 17 -43 20 -12 3 -16 11 -11 23 16 47 45 55 51 14z m-1483 -14 c0 -26 -20
-25 -23 2 -3 16 1 22 10 19 7 -3 13 -12 13 -21z m1117 6 c20 -18 24 -48 7 -58
-24 -15 -63 48 -42 68 9 10 15 9 35 -10z m264 -9 c-3 -9 -6 -20 -6 -25 0 -5
-9 -9 -20 -9 -15 0 -20 7 -20 25 0 20 5 25 26 25 20 0 25 -4 20 -16z m-742
-10 c31 -12 18 -34 -19 -34 -33 0 -35 2 -25 20 11 21 19 24 44 14z m-684 -40
c0 -8 -4 -12 -10 -9 -5 3 -10 10 -10 16 0 5 5 9 10 9 6 0 10 -7 10 -16z m1380
-20 c0 -19 -5 -24 -25 -24 -20 0 -25 5 -25 24 0 15 7 26 18 29 25 5 32 -1 32
-29z m78 15 c-2 -6 -8 -10 -13 -10 -5 0 -11 4 -13 10 -2 6 4 11 13 11 9 0 15
-5 13 -11z m560 -22 c2 -11 -3 -17 -17 -17 -23 0 -35 15 -26 31 10 15 39 6 43
-14z m-1560 -11 c3 -12 -1 -17 -10 -14 -7 3 -15 13 -16 22 -3 12 1 17 10 14 7
-3 15 -13 16 -22z m396 -12 c3 -8 2 -12 -4 -9 -6 3 -10 10 -10 16 0 14 7 11
14 -7z m1196 -41 c0 -16 -40 -83 -50 -83 -3 0 -5 10 -6 23 0 12 -4 29 -7 37
-5 10 2 20 20 31 31 18 43 16 43 -8z m-350 -152 c0 -44 -18 -65 -27 -31 -3 12
-16 26 -29 31 -44 16 -30 29 44 38 8 0 12 -13 12 -38z m-1410 -3 c0 -6 11 -21
25 -34 14 -13 25 -30 25 -39 0 -28 -18 -15 -44 31 -27 49 -33 69 -16 59 6 -3
10 -11 10 -17z m440 -15 c0 -5 -4 -14 -9 -22 -8 -12 -14 -12 -39 -2 -17 7 -36
10 -41 6 -14 -8 -33 4 -26 16 7 11 115 12 115 2z m1267 -15 c-3 -8 -6 -5 -6 6
-1 11 2 17 5 13 3 -3 4 -12 1 -19z m-383 -19 c29 -23 26 -39 -6 -39 -21 0 -68
36 -68 52 0 16 48 8 74 -13z m-1714 -14 c7 -9 10 -18 6 -22 -9 -10 -58 16 -51
27 9 15 31 12 45 -5z m508 -17 c-2 -6 -10 -14 -16 -16 -7 -2 -10 2 -6 12 7 18
28 22 22 4z m-238 -8 c12 -8 11 -10 -7 -10 -12 0 -25 5 -28 10 -8 13 15 13 35
0z m1370 -11 c7 -11 9 -27 6 -35 -9 -24 -46 2 -46 31 0 31 25 33 40 4z"/>
<path d="M3360 1972 c-35 -3 -60 -24 -60 -50 0 -25 87 -9 117 21 l25 24 -24 4
c-12 2 -39 3 -58 1z"/>
<path d="M4853 1973 l-31 -4 -1 -116 c-1 -85 2 -119 11 -125 10 -6 10 -8 1 -8
-10 0 -13 -59 -13 -260 l0 -260 31 0 c27 0 30 -2 18 -16 -7 -8 -21 -13 -31
-11 -16 5 -18 -2 -18 -54 0 -56 1 -59 24 -59 14 0 28 -5 31 -10 3 -5 -3 -10
-14 -10 -12 0 -21 -4 -21 -10 0 -5 15 -10 33 -10 l34 0 2 57 c1 37 -2 59 -11
64 -10 7 -10 9 0 9 8 0 12 22 12 75 0 49 -4 75 -11 75 -8 0 -8 5 1 15 11 13 9
15 -13 15 -16 0 -26 7 -30 20 -6 22 12 27 31 8 6 -6 15 -8 19 -4 5 4 -1 14
-11 22 -17 12 -18 14 -3 14 15 0 17 25 17 295 -1 225 -4 295 -13 293 -7 0 -26
-3 -44 -5z"/>
<path d="M2912 1958 c-30 -30 -8 -58 44 -58 16 0 23 -4 18 -11 -4 -6 -19 -9
-38 -5 -20 4 -26 3 -17 -3 11 -7 9 -11 -8 -20 -21 -11 -21 -17 -17 -119 2 -59
8 -116 12 -127 11 -29 94 -145 104 -145 5 0 10 -6 12 -14 2 -11 10 -9 31 10
22 18 26 28 18 38 -6 7 -7 16 -2 22 6 5 -10 40 -39 87 -48 78 -65 123 -49 133
5 3 9 27 9 55 l0 49 54 0 54 0 0 -45 c-1 -50 2 -58 24 -50 9 4 13 18 12 45 -1
22 2 43 7 46 5 3 9 -8 9 -23 0 -16 5 -34 12 -41 9 -9 8 -15 -8 -27 -10 -8 -27
-15 -36 -15 -13 0 -18 -8 -18 -30 0 -30 21 -42 35 -20 3 6 13 10 21 10 8 0 12
-4 9 -10 -3 -6 1 -7 9 -4 20 8 23 134 4 134 -9 0 -9 3 0 12 23 23 14 55 -19
67 -17 6 -35 8 -40 5 -5 -3 -9 -1 -9 5 0 5 -7 17 -16 25 -14 14 -11 15 25 13
23 -1 41 -5 41 -9 0 -5 -6 -8 -12 -8 -14 0 11 -20 25 -20 16 0 6 40 -12 50
-28 14 -234 13 -249 -2z m176 -59 c10 -16 19 -19 39 -14 23 5 25 4 14 -9 -8
-9 -18 -16 -23 -16 -15 0 -68 40 -68 51 0 17 25 9 38 -12z m-137 -110 c8 -15
8 -19 0 -15 -6 4 -11 0 -11 -8 0 -9 -5 -16 -11 -16 -6 0 -8 7 -5 16 3 9 6 22
6 30 0 20 7 17 21 -7z m89 -215 c0 -3 -7 -1 -15 6 -8 7 -15 17 -15 22 0 5 7 3
15 -6 8 -8 15 -18 15 -22z m10 -35 c0 -5 -7 -9 -15 -9 -8 0 -16 -10 -16 -22
l-2 -23 -4 22 c-2 12 2 29 9 37 13 14 28 12 28 -5z"/>
<path d="M3454 1958 c3 -7 9 -21 12 -30 4 -10 12 -18 20 -18 7 0 16 -4 19 -10
4 -6 -8 -10 -28 -10 -30 0 -34 3 -30 20 7 26 -6 25 -58 -5 l-44 -25 39 7 c28
4 37 3 32 -5 -11 -18 -86 -15 -86 3 0 8 -7 15 -15 15 -12 0 -15 -18 -15 -101
0 -76 3 -100 13 -96 6 2 11 11 9 20 -2 12 5 15 33 13 l35 -3 0 58 0 59 60 0
59 0 3 -92 c3 -89 4 -92 28 -99 24 -7 24 -7 3 -8 -19 -1 -23 -7 -23 -34 0 -18
5 -38 12 -45 8 -8 8 -12 1 -12 -6 0 -11 -23 -12 -53 -1 -43 2 -53 17 -54 9 -1
26 -4 38 -8 18 -6 22 -2 28 25 11 56 7 90 -9 90 -8 0 -15 7 -15 16 0 8 5 12
10 9 6 -3 10 3 10 14 0 11 -7 24 -16 29 -9 5 -14 15 -10 21 4 6 11 9 16 6 12
-7 24 96 16 142 -7 43 -7 47 -5 103 1 22 -4 46 -11 55 -15 18 -86 20 -93 3 -4
-10 -6 -10 -6 0 -1 6 -10 12 -22 12 -13 0 -19 -5 -15 -12z m136 -68 c0 -12
-37 0 -51 16 -9 12 -6 12 20 3 17 -6 31 -15 31 -19z m-39 -283 c-1 -12 -15 -9
-19 4 -3 6 1 10 8 8 6 -3 11 -8 11 -12z m32 -137 c-7 -8 -22 24 -16 34 4 5 10
1 13 -10 4 -10 6 -21 3 -24z"/>
<path d="M3720 1896 c0 -50 4 -76 13 -79 10 -4 10 -6 0 -6 -19 -1 -16 -28 5
-40 16 -10 16 -10 0 -11 -16 0 -18 -24 -18 -326 0 -275 2 -325 14 -321 13 5
46 -21 46 -36 0 -14 -28 -7 -34 8 -11 29 -26 15 -26 -25 l0 -40 120 0 121 0
-3 58 -3 57 -43 3 c-24 2 -50 -2 -57 -8 -11 -9 -23 -9 -51 0 l-38 13 23 18
c29 23 24 59 -9 77 l-25 14 28 -6 27 -6 0 80 c0 63 -3 82 -15 86 -12 5 -13 10
-4 20 9 11 7 14 -10 14 -13 0 -21 6 -21 16 0 12 6 15 25 10 24 -6 25 -4 25 39
0 42 -3 47 -35 62 -38 18 -39 21 -25 43 5 9 5 19 -2 27 -16 19 0 29 22 15 35
-22 40 -14 40 63 0 60 -3 76 -17 84 -16 9 -16 10 -2 11 13 0 17 14 18 80 l2
80 -45 0 -46 0 0 -74z"/>
<path d="M4050 1905 c0 -63 1 -65 25 -65 14 0 25 5 25 10 0 6 7 10 16 10 24 0
6 -20 -32 -36 -33 -14 -34 -16 -34 -69 0 -44 4 -57 23 -71 l22 -16 -22 5 c-23
5 -23 5 -23 -120 0 -110 2 -124 16 -119 9 3 21 3 27 -1 7 -4 2 -9 -13 -13 -23
-5 -25 -10 -27 -74 -2 -59 0 -66 13 -55 8 6 17 9 20 6 3 -3 -4 -10 -15 -17
-19 -10 -21 -20 -21 -101 0 -54 6 -103 14 -123 l14 -34 120 -1 c81 0 125 4
137 12 16 12 18 31 16 112 0 11 0 44 1 74 0 35 -4 56 -13 62 -12 8 -12 10 0
18 20 13 19 300 -1 312 -9 6 -10 9 -1 9 10 0 13 26 12 98 0 53 3 105 6 115 4
9 4 32 1 51 -5 26 -13 36 -39 44 l-32 11 30 -2 c24 -2 31 1 31 15 0 14 -8 18
-33 18 -17 0 -35 -6 -40 -12 -4 -7 -8 -193 -8 -413 l0 -400 -57 -3 c-46 -2
-58 -7 -63 -22 -7 -23 -35 -33 -61 -23 -16 6 -14 8 11 13 17 3 30 12 30 20 0
8 4 20 7 26 13 20 8 338 -5 346 -9 6 -9 8 1 8 9 0 12 30 12 114 0 104 -2 115
-19 121 -22 7 -36 35 -18 35 7 0 18 -5 25 -12 9 -9 12 7 12 74 0 74 -3 87 -17
91 -17 4 -17 5 0 6 9 0 17 7 17 14 0 9 -15 14 -45 15 l-45 2 0 -65z m287 -111
c-3 -3 -12 -4 -19 -1 -8 3 -5 6 6 6 11 1 17 -2 13 -5z m-222 -104 c3 -5 2 -10
-4 -10 -5 0 -13 5 -16 10 -3 6 -2 10 4 10 5 0 13 -4 16 -10z m192 -416 c-3 -3
-12 -4 -19 -1 -8 3 -5 6 6 6 11 1 17 -2 13 -5z m-217 -203 c0 -6 -4 -13 -10
-16 -5 -3 -10 1 -10 9 0 9 5 16 10 16 6 0 10 -4 10 -9z m55 -11 c3 -5 1 -10
-4 -10 -6 0 -11 5 -11 10 0 6 2 10 4 10 3 0 8 -4 11 -10z"/>
<path d="M4440 1910 l0 -60 50 0 50 0 0 -50 c0 -36 4 -52 15 -56 8 -4 12 -10
9 -15 -3 -5 -10 -7 -15 -4 -5 4 -9 -3 -9 -14 0 -12 5 -21 11 -21 5 0 7 -4 4
-10 -3 -5 -1 -10 5 -10 6 0 8 -5 5 -10 -4 -6 -11 -8 -16 -5 -5 4 -9 -81 -9
-214 0 -122 3 -221 8 -221 4 0 16 7 26 15 11 8 28 13 38 9 16 -5 18 3 18 85 0
54 -4 91 -10 91 -5 0 -10 7 -10 15 0 8 5 15 10 15 6 0 10 52 10 136 0 87 -4
133 -10 129 -5 -3 -10 -1 -10 4 0 6 5 11 11 11 6 0 10 18 9 43 -3 79 -5 77 50
77 49 0 50 1 50 30 0 18 -6 33 -15 36 -8 4 -15 11 -15 16 0 6 7 8 15 4 10 -4
15 1 15 14 0 19 -7 20 -145 20 l-145 0 0 -60z"/>
<path d="M5066 1958 c5 -7 2 -9 -9 -5 -13 5 -17 -3 -22 -36 -3 -23 -5 -55 -5
-72 0 -16 -2 -100 -4 -185 -3 -114 -1 -163 9 -187 7 -17 10 -35 7 -39 -4 -5 1
-2 11 6 15 11 23 11 38 2 15 -10 19 -9 19 2 0 8 -4 18 -10 21 -5 3 -10 15 -10
26 0 11 4 18 9 15 5 -4 9 41 10 102 0 59 0 137 1 175 l0 67 65 0 65 0 1 -87
c1 -49 1 -96 0 -105 -1 -10 4 -18 13 -18 10 0 13 6 10 15 -4 10 0 15 14 15 15
0 19 -5 15 -20 -3 -13 -14 -20 -29 -20 -28 0 -33 -26 -6 -33 16 -4 16 -5 0 -6
-14 -1 -18 -10 -18 -46 0 -63 14 -82 56 -77 l34 4 0 63 c0 41 -4 65 -12 69
-10 5 -10 7 0 12 15 7 17 184 2 184 -5 0 -10 5 -10 11 0 5 5 7 10 4 13 -8 13
110 0 136 -9 17 -22 19 -105 19 -57 0 -95 -4 -95 -10 0 -5 -5 -10 -11 -10 -5
0 -7 5 -4 10 4 6 -5 10 -20 10 -17 0 -24 -4 -19 -12z m34 -378 c0 -5 -2 -10
-4 -10 -3 0 -8 5 -11 10 -3 6 -1 10 4 10 6 0 11 -4 11 -10z m-30 -50 c0 -5 -4
-10 -10 -10 -5 0 -10 5 -10 10 0 6 5 10 10 10 6 0 10 -4 10 -10z"/>
<path d="M5452 1958 c-8 -8 -12 -51 -12 -125 0 -92 3 -115 15 -119 17 -7 21
-44 5 -44 -5 0 -10 -24 -10 -53 l0 -52 40 0 c33 0 40 3 40 19 0 16 -5 18 -35
13 -29 -5 -35 -3 -35 12 0 14 6 17 30 13 18 -3 30 0 30 7 0 6 -9 11 -20 11
-11 0 -20 5 -20 10 0 14 22 12 44 -5 10 -7 15 -19 11 -25 -4 -7 2 -14 14 -17
12 -3 21 -12 21 -20 0 -10 -6 -13 -16 -9 -13 5 -15 2 -10 -16 3 -13 6 -29 6
-36 0 -7 5 -10 10 -7 6 3 15 3 22 -1 8 -5 6 -11 -6 -19 -9 -7 -14 -19 -11 -28
5 -12 12 -13 38 -4 18 7 34 13 36 14 2 1 -2 30 -9 63 -10 48 -19 64 -39 76
-22 13 -23 14 -5 11 21 -4 21 -4 8 55 -8 33 -17 65 -20 70 -3 5 -8 23 -11 41
-3 17 -12 37 -21 45 -12 9 -13 15 -5 18 17 8 -1 59 -20 58 -10 -1 -17 4 -17
12 0 8 7 14 15 14 9 0 12 6 9 15 -7 18 -55 20 -72 3z m88 -163 c0 -8 -5 -15
-11 -15 -7 0 -18 -8 -26 -17 -13 -17 -14 -16 -10 5 3 12 1 22 -5 22 -5 0 -6 5
-3 10 10 16 55 12 55 -5z"/>
<path d="M5660 1940 c0 -23 4 -28 18 -24 16 5 16 5 0 -6 -19 -12 -25 -40 -8
-40 6 0 10 5 10 10 0 6 7 10 15 10 8 0 15 5 15 10 0 6 8 10 17 10 15 0 14 -2
-3 -19 -11 -10 -30 -22 -42 -25 -20 -7 -22 -14 -22 -72 0 -56 2 -64 19 -64 11
0 21 5 23 12 3 8 9 8 24 0 17 -10 17 -11 2 -12 -22 0 -22 -1 -3 -36 16 -31 13
-43 -7 -26 -7 6 -17 12 -23 14 -5 1 -10 11 -9 21 1 34 -21 10 -24 -25 -3 -33
-1 -36 20 -31 l23 5 -22 -16 c-20 -15 -23 -26 -23 -92 0 -44 4 -74 10 -74 7 0
6 -5 -1 -13 -7 -7 -26 -11 -43 -10 -17 2 -36 0 -43 -4 -19 -13 5 -90 34 -113
22 -17 23 -21 10 -42 -13 -20 -12 -35 10 -133 14 -60 30 -116 35 -122 6 -7 26
-13 44 -13 l34 0 0 110 c0 98 -2 110 -19 120 -11 5 -30 10 -42 10 -22 0 -22 0
-3 14 19 15 19 15 -1 30 -19 15 -17 16 23 10 l42 -7 0 43 c0 29 -6 47 -17 56
-17 12 -17 13 -1 14 16 0 17 22 17 275 l-1 275 -44 0 c-42 0 -44 -1 -44 -30z
m47 -505 c0 -8 -4 -12 -9 -9 -5 3 -6 10 -3 15 9 13 12 11 12 -6z"/>
<path d="M5877 1941 c-11 -18 -17 -50 -17 -86 0 -52 2 -56 20 -50 16 5 20 2
19 -17 0 -13 -3 -17 -6 -10 -2 6 -11 12 -19 12 -10 0 -14 -12 -14 -40 0 -38
13 -54 23 -27 3 9 10 7 23 -6 15 -14 16 -18 4 -17 -41 6 -50 0 -50 -32 0 -46
35 -102 60 -95 11 3 20 1 20 -3 0 -5 3 -17 7 -27 6 -17 5 -16 -18 2 l-24 20
23 -26 c12 -14 22 -30 22 -35 0 -5 16 -32 35 -61 30 -45 40 -52 85 -63 46 -11
49 -13 33 -26 -17 -14 -16 -14 7 -12 17 2 25 9 24 20 -1 10 2 15 7 12 29 -18
-32 89 -63 111 -13 8 -19 15 -15 15 12 0 -17 50 -67 117 l-46 61 0 86 0 86 34
0 c46 0 56 18 14 23 l-33 4 35 1 c19 1 44 -5 54 -13 11 -8 28 -13 38 -9 12 3
18 0 18 -9 0 -19 -27 -30 -34 -14 -2 7 -5 -15 -5 -48 0 -53 1 -58 13 -42 15
19 33 6 21 -14 -8 -11 33 -55 42 -46 10 11 2 261 -9 274 -7 9 -43 13 -127 13
l-117 0 -17 -29z m118 -33 c6 -6 -6 -7 -32 -2 -29 4 -43 3 -43 -5 0 -6 5 -11
10 -11 6 0 10 -7 10 -15 0 -8 -4 -15 -10 -15 -5 0 -10 6 -10 14 0 8 -7 17 -17
20 -14 6 -14 8 3 21 20 15 70 11 89 -7z m102 -34 c-3 -3 -12 -4 -19 -1 -8 3
-5 6 6 6 11 1 17 -2 13 -5z m-157 -274 c0 -5 -4 -10 -10 -10 -5 0 -10 5 -10
10 0 6 5 10 10 10 6 0 10 -4 10 -10z"/>
<path d="M3326 1694 c-15 -14 -27 -27 -25 -29 2 -2 23 -10 47 -18 l42 -15 0
44 c0 53 -19 58 -64 18z"/>
<path d="M6070 1690 c0 -5 5 -10 11 -10 5 0 7 5 4 10 -3 6 -8 10 -11 10 -2 0
-4 -4 -4 -10z"/>
<path d="M3300 1520 c0 -66 3 -120 6 -120 4 0 24 10 45 22 l39 22 0 86 c0 83
-1 87 -25 98 -14 7 -35 12 -45 12 -19 0 -20 -8 -20 -120z m47 -76 c-3 -3 -12
-4 -19 -1 -8 3 -5 6 6 6 11 1 17 -2 13 -5z"/>
<path d="M3778 1599 c5 -35 32 -39 32 -5 0 14 -7 26 -18 28 -15 4 -17 0 -14
-23z"/>
<path d="M5475 1530 c-4 -6 -11 -8 -16 -5 -16 11 -9 -7 9 -21 20 -15 62 -19
62 -5 0 5 -6 12 -12 14 -10 4 -9 8 2 16 12 9 10 11 -12 11 -15 0 -30 -5 -33
-10z"/>
<path d="M3090 1502 c0 -14 6 -22 16 -22 14 0 15 3 3 18 -7 9 -15 19 -16 21
-2 2 -3 -5 -3 -17z"/>
<path d="M5450 1471 c0 -19 35 -39 47 -27 4 3 -1 6 -10 6 -9 0 -17 6 -17 14 0
8 -4 18 -10 21 -5 3 -10 -3 -10 -14z"/>
<path d="M5506 1471 c-3 -5 1 -14 9 -21 13 -10 15 -9 15 9 0 21 -14 28 -24 12z"/>
<path d="M5315 1451 c3 -5 1 -12 -5 -16 -5 -3 -10 -15 -10 -27 0 -14 -5 -18
-15 -15 -8 4 -17 2 -20 -3 -3 -5 6 -12 20 -16 29 -7 32 -19 8 -33 -20 -11 -4
-15 21 -5 12 5 16 21 16 65 0 35 -4 59 -11 59 -5 0 -8 -4 -4 -9z"/>
<path d="M5270 1440 c0 -5 4 -10 9 -10 6 0 13 5 16 10 3 6 -1 10 -9 10 -9 0
-16 -4 -16 -10z"/>
<path d="M3036 1432 c-2 -4 11 -32 30 -62 20 -32 34 -67 34 -86 0 -32 1 -32
46 -31 l46 0 -4 67 c-2 41 -10 77 -21 93 -15 24 -24 27 -72 27 -29 0 -56 -3
-59 -8z"/>
<path d="M5446 1421 c-3 -5 -6 -95 -5 -200 l0 -191 24 -6 c13 -3 30 -4 37 -1
8 3 6 6 -5 6 -25 1 -16 25 10 29 20 3 21 10 22 88 0 86 -5 96 -33 68 -20 -19
-20 -33 -1 -40 8 -4 12 -10 9 -16 -3 -5 -14 -2 -25 8 -17 15 -17 19 -4 45 9
16 24 33 36 39 18 10 20 20 17 86 -1 41 -6 78 -12 81 -5 4 -7 -1 -3 -10 9 -23
-5 -21 -36 3 -14 11 -28 16 -31 11z"/>
<path d="M3585 1410 c3 -5 8 -10 11 -10 2 0 4 5 4 10 0 6 -5 10 -11 10 -5 0
-7 -4 -4 -10z"/>
<path d="M5064 1413 l-31 -4 -7 -157 c-8 -191 -3 -214 47 -224 47 -10 87 5 87
32 0 11 5 20 11 20 6 0 8 -7 5 -16 -5 -13 -1 -14 25 -9 22 5 29 4 25 -4 -4 -6
-16 -11 -27 -11 -10 0 -19 -4 -19 -10 0 -21 125 0 142 25 4 5 8 31 8 58 0 47
-13 60 -36 37 -7 -7 -16 -5 -29 4 -18 13 -18 14 8 9 16 -3 27 -1 27 6 0 6 7
11 15 11 12 0 15 14 15 70 0 64 -9 86 -25 60 -3 -5 -19 -7 -35 -3 l-30 6 0
-87 c0 -62 -4 -86 -12 -86 -7 -1 -1 -6 13 -13 24 -11 25 -14 11 -37 l-14 -25
6 26 c5 24 2 27 -37 38 -23 6 -53 12 -67 13 -23 3 -25 8 -28 58 -2 30 -8 60
-14 67 -7 9 -7 13 1 13 7 0 11 25 11 70 0 39 -3 69 -7 68 -5 0 -22 -3 -39 -5z
m11 -183 c18 -8 17 -9 -7 -9 -16 -1 -28 4 -28 9 0 12 8 12 35 0z m208 -37 c-7
-2 -19 -2 -25 0 -7 3 -2 5 12 5 14 0 19 -2 13 -5z m-8 -133 c3 -5 1 -10 -4
-10 -6 0 -11 5 -11 10 0 6 2 10 4 10 3 0 8 -4 11 -10z m-155 -20 c0 -5 -7 -10
-16 -10 -8 0 -12 5 -9 10 3 6 10 10 16 10 5 0 9 -4 9 -10z"/>
<path d="M3513 1349 c3 -35 10 -65 16 -67 17 -6 13 -22 -5 -22 -14 0 -16 -8
-10 -60 l7 -60 -66 0 -65 0 0 53 c0 28 -4 47 -8 40 -5 -8 -17 -10 -37 -5 -37
10 -45 32 -12 32 14 0 32 3 41 6 19 7 22 60 4 67 -10 3 -10 7 0 20 8 9 12 22
9 29 -3 8 -6 6 -6 -5 -1 -15 -7 -16 -42 -11 l-40 7 3 -162 c3 -147 5 -164 22
-177 26 -19 249 -20 264 -1 14 18 24 167 13 204 -6 22 -6 35 1 39 14 9 2 91
-16 110 -8 8 -29 17 -47 21 l-32 6 6 -64z"/>
<path d="M5241 1354 c0 -11 3 -14 6 -6 3 7 2 16 -1 19 -3 4 -6 -2 -5 -13z"/>
<path d="M2935 1320 c3 -5 10 -10 16 -10 5 0 9 5 9 10 0 6 -7 10 -16 10 -8 0
-12 -4 -9 -10z"/>
<path d="M5860 1281 c0 -31 5 -53 15 -61 20 -16 19 -37 -2 -48 -10 -6 -14 -16
-9 -27 6 -16 8 -16 31 -1 13 9 31 16 40 16 12 0 15 15 15 85 l0 85 -45 0 -45
0 0 -49z"/>
<path d="M6082 1316 c-22 -10 -23 -16 -20 -94 l3 -82 -40 0 c-22 0 -47 -5 -55
-10 -13 -8 -12 -10 3 -10 9 0 17 -4 17 -10 0 -15 -36 -12 -49 4 -9 11 -9 15 1
19 7 3 3 6 -9 6 -13 1 -23 -3 -23 -9 0 -5 -9 -10 -19 -10 -15 0 -19 -7 -18
-35 1 -31 3 -34 26 -29 24 5 25 4 9 -9 -10 -8 -18 -17 -18 -21 0 -3 54 -6 120
-6 108 0 120 2 130 19 17 32 12 61 -9 61 -14 0 -18 5 -14 20 5 19 6 20 19 3
12 -16 13 -12 14 30 0 36 -4 47 -16 47 -11 0 -14 -6 -9 -20 5 -14 2 -20 -9
-20 -9 0 -16 -4 -16 -10 0 -5 -5 -10 -12 -10 -8 0 -9 3 -2 10 6 6 9 42 7 85
-3 50 0 75 7 75 7 0 9 -15 7 -40 -4 -36 -2 -40 20 -40 27 0 32 30 7 51 -14 11
-14 13 0 21 43 24 -6 37 -52 14z m-37 -226 c4 -6 -12 -10 -42 -9 -36 0 -43 3
-28 9 28 12 63 12 70 0z"/>
<path d="M2890 1301 c0 -12 6 -21 16 -21 9 0 14 7 12 17 -5 25 -28 28 -28 4z"/>
<path d="M2965 1290 c3 -5 8 -10 11 -10 2 0 4 5 4 10 0 6 -5 10 -11 10 -5 0
-7 -4 -4 -10z"/>
<path d="M2896 1262 c-9 -9 -6 -143 4 -186 4 -21 15 -43 22 -47 7 -5 63 -9
124 -9 85 0 114 3 124 14 6 8 14 48 17 89 5 72 5 74 -18 80 -55 15 -69 9 -69
-28 0 -24 -5 -35 -15 -35 -8 0 -15 -4 -15 -8 0 -5 -20 -4 -44 2 -43 10 -45 11
-44 48 0 21 -5 45 -12 53 -6 8 -9 18 -6 23 5 9 -59 13 -68 4z m144 -182 c0 -5
-5 -10 -11 -10 -5 0 -7 5 -4 10 3 6 8 10 11 10 2 0 4 -4 4 -10z"/>
<path d="M4585 1220 c-3 -5 -15 -10 -26 -10 -18 0 -19 -7 -18 -95 l1 -95 44 0
44 0 0 105 c0 97 -1 105 -19 105 -11 0 -23 -4 -26 -10z m15 -170 c0 -5 -4 -10
-10 -10 -5 0 -10 5 -10 10 0 6 5 10 10 10 6 0 10 -4 10 -10z"/>
</g>
</svg>
